<?xml version="1.0" encoding="UTF-8" standalone="no"?>
<svg
   xmlns:dc="http://purl.org/dc/elements/1.1/"
   xmlns:cc="http://creativecommons.org/ns#"
   xmlns:rdf="http://www.w3.org/1999/02/22-rdf-syntax-ns#"
   xmlns:svg="http://www.w3.org/2000/svg"
   xmlns="http://www.w3.org/2000/svg"
   xmlns:xlink="http://www.w3.org/1999/xlink"
   xmlns:sodipodi="http://sodipodi.sourceforge.net/DTD/sodipodi-0.dtd"
   xmlns:inkscape="http://www.inkscape.org/namespaces/inkscape"
   id="44914b3e-4ff9-4431-981e-b48acbe6759b"
   data-name="Layer 1"
   width="1000"
   height="753.73999"
   viewBox="0 0 1000 753.74"
   version="1.1"
   sodipodi:docname="undraw_selfie-wide.svg"
   inkscape:version="0.92.3 (2405546, 2018-03-11)">
  <metadata
     id="metadata120">
    <rdf:RDF>
      <cc:Work
         rdf:about="">
        <dc:format>image/svg+xml</dc:format>
        <dc:type
           rdf:resource="http://purl.org/dc/dcmitype/StillImage" />
        <dc:title>selfie1</dc:title>
      </cc:Work>
    </rdf:RDF>
  </metadata>
  <sodipodi:namedview
     pagecolor="#ffffff"
     bordercolor="#666666"
     borderopacity="1"
     objecttolerance="10"
     gridtolerance="10"
     guidetolerance="10"
     inkscape:pageopacity="0"
     inkscape:pageshadow="2"
     inkscape:window-width="1559"
     inkscape:window-height="835"
     id="namedview118"
     showgrid="false"
     inkscape:zoom="0.31310532"
     inkscape:cx="83.41926"
     inkscape:cy="669.20162"
     inkscape:window-x="41"
     inkscape:window-y="0"
     inkscape:window-maximized="1"
     inkscape:current-layer="44914b3e-4ff9-4431-981e-b48acbe6759b" />
  <defs
     id="defs20">
    <linearGradient
       id="047d6260-e3e7-4421-9cbc-178d61f5fd00"
       x1="447.07999"
       y1="348.98999"
       x2="447.07999"
       y2="216.39999"
       gradientTransform="translate(0.01,-0.01)"
       gradientUnits="userSpaceOnUse">
      <stop
         offset="0"
         stop-color="gray"
         stop-opacity="0.25"
         id="stop2" />
      <stop
         offset="0.54"
         stop-color="gray"
         stop-opacity="0.12"
         id="stop4" />
      <stop
         offset="1"
         stop-color="gray"
         stop-opacity="0.1"
         id="stop6" />
    </linearGradient>
    <linearGradient
       id="63ca4d46-187d-400f-bc66-80514cad3441"
       x1="653.78998"
       y1="826.87"
       x2="653.78998"
       y2="570.09003"
       xlink:href="#047d6260-e3e7-4421-9cbc-178d61f5fd00"
       gradientTransform="translate(-99.965102,-73.13)" />
    <linearGradient
       id="d33e6aa4-99b5-473f-bb68-306d2b531be8"
       x1="487.45999"
       y1="663.45001"
       x2="740.06"
       y2="66.959999"
       gradientTransform="rotate(-0.14,-841.69594,5577.1306)"
       xlink:href="#047d6260-e3e7-4421-9cbc-178d61f5fd00" />
    <linearGradient
       id="29dd9e8b-9418-4416-aa22-a80903c94e95"
       x1="236.87"
       y1="452.34"
       x2="236.87"
       y2="80.349998"
       gradientUnits="userSpaceOnUse"
       gradientTransform="translate(263.99491)">
      <stop
         offset="0"
         stop-color="#fcfdff"
         id="stop11" />
      <stop
         offset="1"
         stop-color="#b2ebf2"
         id="stop13" />
    </linearGradient>
    <linearGradient
       id="92cc4875-fc0d-4098-9c41-d6fc57a0b2d9"
       x1="774.72998"
       y1="657.66998"
       x2="774.72998"
       y2="411.51001"
       xlink:href="#047d6260-e3e7-4421-9cbc-178d61f5fd00"
       gradientTransform="translate(-99.965102,-73.13)" />
    <linearGradient
       id="8bf4a49d-4b4a-4ad7-b49f-3914cd869768"
       x1="450.35999"
       y1="549.19"
       x2="450.35999"
       y2="439.64001"
       xlink:href="#047d6260-e3e7-4421-9cbc-178d61f5fd00"
       gradientTransform="translate(-99.965102,-73.13)" />
    <linearGradient
       id="d03a91ec-a732-40ea-b889-bca828f7dae8"
       x1="446.09"
       y1="640"
       x2="446.09"
       y2="542.77002"
       xlink:href="#047d6260-e3e7-4421-9cbc-178d61f5fd00"
       gradientTransform="translate(-99.965102,-73.13)" />
    <linearGradient
       id="f5bc8f66-26fb-41cb-b6de-69223130756b"
       x1="458.5"
       y1="459.04999"
       x2="458.5"
       y2="337.39001"
       xlink:href="#047d6260-e3e7-4421-9cbc-178d61f5fd00"
       gradientTransform="translate(-99.965102,-73.13)" />
    <linearGradient
       inkscape:collect="always"
       xlink:href="#047d6260-e3e7-4421-9cbc-178d61f5fd00"
       id="linearGradient3846"
       gradientUnits="userSpaceOnUse"
       gradientTransform="translate(-99.955102,-73.14)"
       x1="447.07999"
       y1="348.98999"
       x2="447.07999"
       y2="216.39999" />
  </defs>
  <title
     id="title22">selfie1</title>
  <path
     d="m 425.03491,260.1 v 0 a 33.9,33.9 0 0 1 -46.61,10.59 l -98.71,-65.05 a 33.9,33.9 0 0 1 -10.59,-46.61 v 0 a 33.9,33.9 0 0 1 46.61,-10.59 l 98.71,65.05 a 33.9,33.9 0 0 1 10.59,46.61 z"
     id="path24"
     inkscape:connector-curvature="0"
     style="fill:url(#linearGradient3846)" />
  <path
     d="m 419.58491,256.54 v 0 a 31.51,31.51 0 0 1 -43.33,9.85 l -91.76,-60.52 a 31.51,31.51 0 0 1 -9.85,-43.33 v 0 a 31.51,31.51 0 0 1 43.33,-9.85 l 91.77,60.47 a 31.51,31.51 0 0 1 9.84,43.38 z"
     id="path26"
     inkscape:connector-curvature="0"
     style="fill:#be7c5e" />
  <path
     d="m 736.03491,569.06 a 72.1,72.1 0 0 0 -142.93,-13.44 l -221.58,-6 2.51,38.06 c 0,0 -31.59,72.9 134.46,92.35 v 73.71 h 192 V 631.26 a 72.06,72.06 0 0 0 35.54,-62.2 z"
     id="path28"
     inkscape:connector-curvature="0"
     style="fill:url(#63ca4d46-187d-400f-bc66-80514cad3441)" />
  <path
     d="m 352.69491,600.47 c -1.14,20.51 12.74,63.27 142.11,77.24 v 70.6 h 199.42 v -187 l -341.63,-8.54 0.11,1.65 a 368.71,368.71 0 0 1 -0.01,46.05 z"
     id="path30"
     inkscape:connector-curvature="0"
     style="fill:#be7c5e" />
  <g
     id="g34"
     style="opacity:0.5"
     transform="translate(263.99491)">
    <path
       d="M 747.91,73.13 452.72,73.85 A 12.13,12.13 0 0 0 440.62,86 L 442,638.11 a 12.13,12.13 0 0 0 12.16,12.1 l 295.19,-0.72 a 12.13,12.13 0 0 0 12.1,-12.16 l -1.37,-552.1 a 12.13,12.13 0 0 0 -12.17,-12.1 z"
       transform="translate(-363.96,-73.13)"
       id="path32"
       inkscape:connector-curvature="0"
       style="fill:url(#d33e6aa4-99b5-473f-bb68-306d2b531be8)" />
  </g>
  <rect
     x="344.94034"
     y="9.1038008"
     width="310.82001"
     height="561.03998"
     rx="13.64"
     ry="13.64"
     transform="rotate(-0.14)"
     id="rect36"
     style="fill:#ffffff" />
  <path
     id="08c8378a-2a7c-440d-babe-a4bd2c3153db"
     data-name="&lt;Path&gt;"
     d="m 578.48491,21.76 a 25.2,25.2 0 0 1 -24.78,21.49 l -107.36,0.26 a 25.2,25.2 0 0 1 -24.89,-21.37 l -56.87,0.14 a 11.81,11.81 0 0 0 -11.78,11.83 l 1.23,509.3 a 11.81,11.81 0 0 0 11.83,11.78 l 271.63,-0.66 a 11.81,11.81 0 0 0 11.78,-11.83 l -1.24,-509.3 a 11.81,11.81 0 0 0 -11.83,-11.78 z"
     inkscape:connector-curvature="0"
     style="fill:#6c63ff" />
  <rect
     x="462.4689"
     y="36.174458"
     width="69.260002"
     height="4.3299999"
     rx="2"
     ry="2"
     transform="rotate(-0.86)"
     id="rect39"
     style="fill:#dbdbdb" />
  <circle
     cx="546.44775"
     cy="37.904675"
     r="2.5999999"
     transform="rotate(-0.86)"
     id="circle41"
     style="fill:#dbdbdb" />
  <circle
     cx="500.8649"
     cy="508.26999"
     r="24.860001"
     id="circle43"
     style="opacity:0.5;fill:#eeeeee" />
  <circle
     cx="500.8649"
     cy="508.26999"
     r="17.52"
     stroke-miterlimit="10"
     id="circle45"
     style="opacity:0.2;fill:none;stroke:#6c63ff;stroke-miterlimit:10" />
  <rect
     x="387.23489"
     y="493.17999"
     width="30.18"
     height="30.18"
     id="rect47"
     style="opacity:0.5;fill:#eeeeee" />
  <path
     d="m 610.70491,497.52 v -3.32 a 1,1 0 0 0 -1,-1 h -11.67 a 1,1 0 0 0 -1,1 v 3.32 h -4.52 v -2 h -2.68 v 2 h -3.35 v 20.07 h 34.79 v -20.07 z"
     id="path49"
     inkscape:connector-curvature="0"
     style="opacity:0.5;fill:#eeeeee" />
  <rect
     x="352.60489"
     y="80.349998"
     width="296.51999"
     height="371.98001"
     id="rect51"
     style="fill:url(#29dd9e8b-9418-4416-aa22-a80903c94e95)" />
  <circle
     cx="617.16486"
     cy="57.27"
     r="7.9899998"
     id="circle53"
     style="opacity:0.7;fill:#eeeeee" />
  <circle
     cx="622.49487"
     cy="65.260002"
     r="7.9899998"
     id="circle55"
     style="opacity:0.7;fill:#eeeeee" />
  <circle
     cx="610.95483"
     cy="65.260002"
     r="7.9899998"
     id="circle57"
     style="opacity:0.5;fill:#eeeeee" />
  <polyline
     points="109.03 49.28 121.46 57.27 103.7 65.26 112.58 73.25"
     id="polyline59"
     style="opacity:0.7;fill:#eeeeee"
     transform="translate(263.99491)" />
  <rect
     x="352.60489"
     y="226.84"
     width="87.889999"
     height="225.5"
     id="rect61"
     style="opacity:0.3;fill:#6c63ff" />
  <rect
     x="564.78485"
     y="399.07001"
     width="43.5"
     height="53.27"
     id="rect63"
     style="opacity:0.3;fill:#6c63ff" />
  <rect
     x="608.29486"
     y="354.67999"
     width="37.290001"
     height="98.540001"
     id="rect65"
     style="opacity:0.3;fill:#6c63ff" />
  <path
     d="m 428.03491,452.33 h -14.2 c 0,0 -4.41,-155.36 14.2,-203.3 h 3.55 c 0,0 -12.4,175.78 -3.55,203.3 z"
     id="path67"
     inkscape:connector-curvature="0"
     style="fill:#fff8e1" />
  <path
     d="m 418.30491,241.04 c 0,0 -11.54,32 -6.21,46.17 0,0 8,-29.3 17.31,-33.74 9.31,-4.44 19.09,33.74 19.09,33.74 0,0 5.33,-24 -4.44,-43.5 0,0 19.53,10.65 29.3,31.07 0,0 1.78,-13.32 -21.31,-40.84 0,0 20.42,5.33 33.74,17.76 0,0 4.44,-9.77 -23.08,-25.75 0,0 3.55,-11.54 24.86,-6.21 0,0 0,-15.09 -33.74,-12.43 0,0 0,-9.77 22.19,-8 0,0 0,-12.43 -25.75,-8 0,0 5.33,-8 8.88,-9.77 0,0 -7.1,-0.89 -12.43,3.55 0,0 0.89,-16 -12.43,-22.19 l -1.78,22.19 c 0,0 -14.92,-17.59 -11.54,-14.2 0.89,0.89 3.55,11.54 2.66,16.87 0,0 -15.09,-12.43 -33.74,0.89 0,0 23.08,1.78 26.63,9.77 0,0 -19.53,-3.55 -24,-0.89 0,0 15.09,5.33 14.2,8.88 0,0 -26.63,0 -30.18,9.77 0,0 27.52,3.55 29.3,6.21 0,0 -32,23.08 -33.74,29.3 0,0 32.85,-19.53 38.17,-19.53 5.32,0 -24,28.41 -22.19,35.51 0.04,0 24.01,-28.4 30.23,-26.63 z"
     id="path69"
     inkscape:connector-curvature="0"
     style="fill:#c8e6c9" />
  <path
     d="m 439.74491,370.55 c 0,0 -39.43,12.91 -29.44,81.79 h 18.64 l 22.24,-70.34 z"
     id="path71"
     inkscape:connector-curvature="0"
     style="fill:#be7c5e" />
  <path
     d="m 562.42491,370.55 c 0,0 38.11,14.68 28.11,83.56 l -18.3,-0.14 -21.26,-72 z"
     id="path73"
     inkscape:connector-curvature="0"
     style="fill:#be7c5e" />
  <path
     d="m 441.38491,257.69 c 0,0 -18,92.53 -27.81,87.62 0,0 94.69,81.78 178.29,0 0,0 -14.72,-66.36 -36,-87.62 z"
     id="path75"
     inkscape:connector-curvature="0"
     style="fill:#333333" />
  <circle
     cx="502.08487"
     cy="252.78"
     r="70.330002"
     id="circle77"
     style="fill:#333333" />
  <path
     d="m 573.14491,453.97 c 0,0 8.18,-18 1.64,-40.89 -6.54,-22.89 -1.64,-1.64 -1.64,-1.64 l -11.45,-40.89 h -122.66 l -11.45,49.07 c 0,0 -6.72,22.72 1.64,32.71"
     id="path79"
     inkscape:connector-curvature="0"
     style="opacity:0.1" />
  <path
     d="m 562.42491,370.55 h -122.68 l -11.45,49.07 c 0,0 -11.39,32.55 1.64,32.71 144.62,1.78 0.8,0 143.94,1.64 0,0 8.18,-18 1.64,-40.89 -6.54,-22.89 -1.64,-1.64 -1.64,-1.64 z"
     id="path81"
     inkscape:connector-curvature="0"
     style="fill:#f55f44" />
  <path
     d="m 477.37491,329.84 h 49.07 v 57.06 a 6.73,6.73 0 0 1 -6.73,6.73 h -35.62 a 6.73,6.73 0 0 1 -6.73,-6.73 v -57.06 z"
     id="path83"
     inkscape:connector-curvature="0"
     style="opacity:0.1" />
  <path
     d="m 477.37491,328 h 49.07 v 57.07 a 6.73,6.73 0 0 1 -6.73,6.73 h -35.62 a 6.73,6.73 0 0 1 -6.73,-6.73 V 328 Z"
     id="path85"
     inkscape:connector-curvature="0"
     style="fill:#be7c5e" />
  <path
     d="m 477.45491,335.09 a 70.62,70.62 0 0 0 49.07,0.14 v -6 h -49.07 z"
     id="path87"
     inkscape:connector-curvature="0"
     style="opacity:0.1" />
  <circle
     cx="502.08487"
     cy="268.04999"
     r="70.330002"
     id="circle89"
     style="fill:#be7c5e" />
  <path
     d="m 434.84491,241.33 h 134.12 c 0,0 -11.45,-54.16 -62.15,-50.71 -50.7,3.45 -71.97,50.71 -71.97,50.71 z"
     id="path91"
     inkscape:connector-curvature="0"
     style="fill:#333333" />
  <ellipse
     cx="433.20493"
     cy="265.04999"
     rx="6.54"
     ry="12.27"
     id="ellipse93"
     style="fill:#be7c5e" />
  <ellipse
     cx="570.60486"
     cy="265.04999"
     rx="6.54"
     ry="12.27"
     id="ellipse95"
     style="fill:#be7c5e" />
  <path
     d="m 434.84491,243.15 h 134.12 c 0,0 -11.45,-54.16 -62.15,-50.71 -50.7,3.45 -71.97,50.71 -71.97,50.71 z"
     id="path97"
     inkscape:connector-curvature="0"
     style="opacity:0.1" />
  <circle
     cx="659.32483"
     cy="571.44"
     r="69.040001"
     id="circle99"
     style="fill:#be7c5e" />
  <path
     d="m 703.95491,583.61 v 0 c -20,4.63 -33.79,-8.43 -38.42,-28.46 l -46,-171 a 37.5,37.5 0 0 1 28,-44.85 v 0 a 37.5,37.5 0 0 1 44.85,28 l 37.58,175.38 c 4.59,20.09 -5.93,36.3 -26.01,40.93 z"
     id="path101"
     inkscape:connector-curvature="0"
     style="fill:url(#92cc4875-fc0d-4098-9c41-d6fc57a0b2d9)" />
  <rect
     x="523.05139"
     y="485.30325"
     width="62.84"
     height="250.89999"
     rx="31.42"
     ry="31.42"
     transform="rotate(-13.01)"
     id="rect103"
     style="fill:#be7c5e" />
  <path
     d="m 411.74491,460.49 v 0 a 33.49,33.49 0 0 1 -46,10.47 l -66.2,-42.83 a 33.49,33.49 0 0 1 -10.47,-46 v 0 a 33.49,33.49 0 0 1 46,-10.47 l 66.2,42.83 a 33.49,33.49 0 0 1 10.47,46 z"
     id="path105"
     inkscape:connector-curvature="0"
     style="fill:url(#8bf4a49d-4b4a-4ad7-b49f-3914cd869768)" />
  <path
     d="m 395.13491,551.16 v 0 a 33.79,33.79 0 0 1 -46.46,10.56 l -41,-29.91 a 33.79,33.79 0 0 1 -10.56,-46.46 v 0 a 33.79,33.79 0 0 1 46.46,-10.56 l 41,29.91 a 33.79,33.79 0 0 1 10.56,46.46 z"
     id="path107"
     inkscape:connector-curvature="0"
     style="fill:url(#d03a91ec-a732-40ea-b889-bca828f7dae8)" />
  <path
     d="m 391.83491,548.94 v 0 a 31.51,31.51 0 0 1 -43.33,9.85 l -38.24,-27.92 a 31.51,31.51 0 0 1 -9.85,-43.33 v 0 a 31.51,31.51 0 0 1 43.33,-9.85 l 38.24,27.89 a 31.51,31.51 0 0 1 9.85,43.36 z"
     id="path109"
     inkscape:connector-curvature="0"
     style="fill:#be7c5e" />
  <path
     d="m 408.12491,458.17 v 0 a 31.51,31.51 0 0 1 -43.33,9.85 l -62.29,-40.3 a 31.51,31.51 0 0 1 -9.85,-43.33 v 0 a 31.51,31.51 0 0 1 43.38,-9.85 l 62.24,40.33 a 31.51,31.51 0 0 1 9.85,43.3 z"
     id="path111"
     inkscape:connector-curvature="0"
     style="fill:#be7c5e" />
  <path
     d="m 428.87491,370.27 v 0 a 33.64,33.64 0 0 1 -46.26,10.51 l -83.9,-54.63 a 33.64,33.64 0 0 1 -10.51,-46.28 v 0 a 33.64,33.64 0 0 1 46.26,-10.51 l 83.9,54.63 a 33.64,33.64 0 0 1 10.51,46.28 z"
     id="path113"
     inkscape:connector-curvature="0"
     style="fill:url(#f5bc8f66-26fb-41cb-b6de-69223130756b)" />
  <path
     d="m 424.41491,367.41 v 0 a 31.51,31.51 0 0 1 -43.33,9.85 l -78.58,-51.16 a 31.51,31.51 0 0 1 -9.85,-43.33 v 0 a 31.51,31.51 0 0 1 43.38,-9.9 l 78.58,51.16 a 31.51,31.51 0 0 1 9.8,43.38 z"
     id="path115"
     inkscape:connector-curvature="0"
     style="fill:#be7c5e" />
</svg>
